<?xml version="1.0" standalone="no"?>
<!DOCTYPE svg PUBLIC "-//W3C//DTD SVG 20010904//EN"
 "http://www.w3.org/TR/2001/REC-SVG-20010904/DTD/svg10.dtd">
<svg version="1.0" xmlns="http://www.w3.org/2000/svg"
 width="512.000000pt" height="512.000000pt" viewBox="0 0 512.000000 512.000000"
 preserveAspectRatio="xMidYMid meet">
<metadata>
Created by potrace 1.14, written by Peter Selinger 2001-2017
</metadata>
<g transform="translate(0.000000,512.000000) scale(0.100000,-0.100000)"
fill="#000000" stroke="none">
<path d="M2567 5074 c-1 -1 -47 -4 -102 -8 -102 -6 -251 -39 -343 -75 -279
-110 -516 -328 -651 -599 -34 -67 -86 -215 -96 -272 -16 -92 -25 -180 -26
-255 -1 -79 -3 -85 -31 -112 -99 -94 -201 -273 -240 -423 -20 -76 -22 -110
-23 -315 0 -201 2 -237 19 -285 42 -122 119 -220 222 -286 l52 -33 1 -158 c1
-87 3 -173 6 -190 3 -21 0 -33 -8 -34 -7 0 -181 -2 -387 -3 -206 -1 -393 -6
-415 -10 -108 -22 -233 -109 -294 -205 -60 -93 -73 -149 -75 -330 -2 -130 -5
-165 -17 -171 -8 -4 -47 -16 -86 -26 l-73 -18 0 -608 0 -608 23 0 c12 -1 1163
-2 2557 -3 l2535 -2 3 611 2 611 -85 22 c-84 23 -85 23 -85 54 -1 146 -10 309
-20 342 -42 142 -151 259 -295 316 -59 23 -67 23 -455 27 -217 1 -401 5 -407
7 -7 2 -10 11 -7 19 3 9 7 92 8 186 l1 169 49 32 c113 71 208 208 235 337 16
77 14 391 -3 487 -32 179 -104 325 -227 459 l-54 59 -2 96 c-12 585 -429 1073
-1003 1175 -73 13 -196 25 -203 20z m-1036 -3370 l21 -23 -54 -16 c-31 -8 -64
-17 -74 -20 -11 -2 -93 -24 -184 -49 -91 -24 -208 -56 -260 -69 -52 -14 -180
-49 -283 -76 -104 -28 -196 -51 -207 -51 -16 0 -18 9 -16 98 3 134 33 189 117
220 12 5 224 9 470 9 l448 0 22 -23z m3009 8 c77 -34 102 -85 104 -210 0 -57
-3 -96 -9 -99 -6 -2 -231 55 -500 127 -270 72 -508 136 -529 141 l-39 11 25
21 c26 22 27 22 474 21 305 -1 457 -4 474 -12z"/>
</g>
</svg>
